<mxfile host="app.diagrams.net" modified="2022-08-26T08:29:02.946Z" agent="5.0 (Macintosh; Intel Mac OS X 10_15_7) AppleWebKit/537.36 (KHTML, like Gecko) Chrome/104.0.0.0 Safari/537.36" etag="JEM5pUBIJxoRk92BHLbW" version="20.2.6" type="github">
  <diagram id="8NOgxnW5nLGLny6kEl4T" name="第 1 页">
    <mxGraphModel dx="1426" dy="680" grid="1" gridSize="10" guides="1" tooltips="1" connect="1" arrows="1" fold="1" page="1" pageScale="1" pageWidth="827" pageHeight="1169" math="0" shadow="0">
      <root>
        <mxCell id="0" />
        <mxCell id="1" parent="0" />
        <mxCell id="zedvxNx7XTAYFTZteejg-2" style="edgeStyle=orthogonalEdgeStyle;rounded=0;orthogonalLoop=1;jettySize=auto;html=1;fontSize=24;strokeColor=#3399FF;" edge="1" parent="1" source="zedvxNx7XTAYFTZteejg-1" target="zedvxNx7XTAYFTZteejg-3">
          <mxGeometry relative="1" as="geometry">
            <mxPoint x="414" y="210" as="targetPoint" />
          </mxGeometry>
        </mxCell>
        <mxCell id="zedvxNx7XTAYFTZteejg-1" value="&lt;font style=&quot;font-size: 24px;&quot;&gt;开始&lt;/font&gt;" style="rounded=1;whiteSpace=wrap;html=1;strokeColor=#97D077;" vertex="1" parent="1">
          <mxGeometry x="354" y="110" width="120" height="40" as="geometry" />
        </mxCell>
        <mxCell id="zedvxNx7XTAYFTZteejg-4" style="edgeStyle=orthogonalEdgeStyle;rounded=0;orthogonalLoop=1;jettySize=auto;html=1;fontSize=24;strokeColor=#3399FF;" edge="1" parent="1" source="zedvxNx7XTAYFTZteejg-3" target="zedvxNx7XTAYFTZteejg-5">
          <mxGeometry relative="1" as="geometry">
            <mxPoint x="414" y="300" as="targetPoint" />
          </mxGeometry>
        </mxCell>
        <mxCell id="zedvxNx7XTAYFTZteejg-3" value="用户输入用&lt;br&gt;户名和密码" style="shape=parallelogram;perimeter=parallelogramPerimeter;whiteSpace=wrap;html=1;fixedSize=1;fontSize=24;strokeColor=#97D077;" vertex="1" parent="1">
          <mxGeometry x="331" y="200" width="166" height="60" as="geometry" />
        </mxCell>
        <mxCell id="zedvxNx7XTAYFTZteejg-7" style="edgeStyle=orthogonalEdgeStyle;rounded=0;orthogonalLoop=1;jettySize=auto;html=1;fontSize=24;strokeColor=#3399FF;" edge="1" parent="1" source="zedvxNx7XTAYFTZteejg-5" target="zedvxNx7XTAYFTZteejg-8">
          <mxGeometry relative="1" as="geometry">
            <mxPoint x="414" y="500" as="targetPoint" />
          </mxGeometry>
        </mxCell>
        <mxCell id="zedvxNx7XTAYFTZteejg-5" value="在user表中通过用户名查询用户" style="rounded=0;whiteSpace=wrap;html=1;fontSize=24;strokeColor=#97D077;" vertex="1" parent="1">
          <mxGeometry x="326" y="360" width="176" height="80" as="geometry" />
        </mxCell>
        <mxCell id="zedvxNx7XTAYFTZteejg-17" style="edgeStyle=orthogonalEdgeStyle;rounded=0;orthogonalLoop=1;jettySize=auto;html=1;fontSize=24;strokeColor=#3399FF;" edge="1" parent="1" source="zedvxNx7XTAYFTZteejg-8" target="zedvxNx7XTAYFTZteejg-16">
          <mxGeometry relative="1" as="geometry" />
        </mxCell>
        <mxCell id="zedvxNx7XTAYFTZteejg-19" value="否" style="edgeLabel;html=1;align=center;verticalAlign=middle;resizable=0;points=[];fontSize=24;" vertex="1" connectable="0" parent="zedvxNx7XTAYFTZteejg-17">
          <mxGeometry x="0.1579" relative="1" as="geometry">
            <mxPoint as="offset" />
          </mxGeometry>
        </mxCell>
        <mxCell id="zedvxNx7XTAYFTZteejg-20" style="edgeStyle=orthogonalEdgeStyle;rounded=0;orthogonalLoop=1;jettySize=auto;html=1;fontSize=24;strokeColor=#3399FF;" edge="1" parent="1" source="zedvxNx7XTAYFTZteejg-8" target="zedvxNx7XTAYFTZteejg-21">
          <mxGeometry relative="1" as="geometry">
            <mxPoint x="414" y="730" as="targetPoint" />
          </mxGeometry>
        </mxCell>
        <mxCell id="zedvxNx7XTAYFTZteejg-8" value="用户是否存在、密码是否正确" style="rhombus;whiteSpace=wrap;html=1;fontSize=24;strokeColor=#97D077;" vertex="1" parent="1">
          <mxGeometry x="319" y="500" width="190" height="150" as="geometry" />
        </mxCell>
        <mxCell id="zedvxNx7XTAYFTZteejg-18" style="edgeStyle=orthogonalEdgeStyle;rounded=0;orthogonalLoop=1;jettySize=auto;html=1;entryX=1;entryY=0.5;entryDx=0;entryDy=0;fontSize=24;strokeColor=#3399FF;" edge="1" parent="1" source="zedvxNx7XTAYFTZteejg-16" target="zedvxNx7XTAYFTZteejg-1">
          <mxGeometry relative="1" as="geometry">
            <Array as="points">
              <mxPoint x="630" y="130" />
            </Array>
          </mxGeometry>
        </mxCell>
        <mxCell id="zedvxNx7XTAYFTZteejg-16" value="提示用户" style="rounded=0;whiteSpace=wrap;html=1;fontSize=24;strokeColor=#97D077;" vertex="1" parent="1">
          <mxGeometry x="570" y="370" width="120" height="60" as="geometry" />
        </mxCell>
        <mxCell id="zedvxNx7XTAYFTZteejg-22" style="edgeStyle=orthogonalEdgeStyle;rounded=0;orthogonalLoop=1;jettySize=auto;html=1;fontSize=24;strokeColor=#3399FF;" edge="1" parent="1" source="zedvxNx7XTAYFTZteejg-21" target="zedvxNx7XTAYFTZteejg-23">
          <mxGeometry relative="1" as="geometry">
            <mxPoint x="414" y="810" as="targetPoint" />
          </mxGeometry>
        </mxCell>
        <mxCell id="zedvxNx7XTAYFTZteejg-21" value="登录成功" style="rounded=0;whiteSpace=wrap;html=1;fontSize=24;strokeColor=#97D077;" vertex="1" parent="1">
          <mxGeometry x="354" y="700" width="120" height="60" as="geometry" />
        </mxCell>
        <mxCell id="zedvxNx7XTAYFTZteejg-23" value="结束" style="rounded=1;whiteSpace=wrap;html=1;fontSize=24;strokeColor=#97D077;" vertex="1" parent="1">
          <mxGeometry x="356" y="810" width="116" height="50" as="geometry" />
        </mxCell>
      </root>
    </mxGraphModel>
  </diagram>
</mxfile>
